<svg width="406" height="227" viewBox="0 0 406 227" fill="none" xmlns="http://www.w3.org/2000/svg">
<path d="M38.4703 4.56394C38.4703 2.46344 40.1731 0.760655 42.2736 0.760655H363.727C365.827 0.760655 367.53 2.46344 367.53 4.56393V221.655H38.4703V4.56394Z" fill="black" stroke="#9FA2A5" stroke-width="1.52131"/>
<path fill-rule="evenodd" clip-rule="evenodd" d="M0.4375 213.44H405.562V221.807H0.4375V213.44Z" fill="#D8D8D8"/>
<path fill-rule="evenodd" clip-rule="evenodd" d="M0.4375 221.807H405.562C405.562 224.412 403.451 226.523 400.846 226.523H5.15357C2.54896 226.523 0.4375 224.412 0.4375 221.807Z" fill="#9FA2A5"/>
<path fill-rule="evenodd" clip-rule="evenodd" d="M177.822 213.44H231.981L230.794 215.887C230.031 217.461 228.436 218.46 226.688 218.46H183.116C181.367 218.46 179.772 217.461 179.009 215.887L177.822 213.44Z" fill="#9FA2A5"/>
</svg>
