<?xml version="1.0" encoding="UTF-8"?>
<svg xmlns="http://www.w3.org/2000/svg" xmlns:xlink="http://www.w3.org/1999/xlink" width="242px" height="242px" viewBox="0 0 242 242" version="1.1">
<defs>
<filter id="alpha" filterUnits="objectBoundingBox" x="0%" y="0%" width="100%" height="100%">
  <feColorMatrix type="matrix" in="SourceGraphic" values="0 0 0 0 1 0 0 0 0 1 0 0 0 0 1 0 0 0 1 0"/>
</filter>
<mask id="mask0">
  <g filter="url(#alpha)">
<rect x="0" y="0" width="242" height="242" style="fill:rgb(0%,0%,0%);fill-opacity:0.0509804;stroke:none;"/>
  </g>
</mask>
<clipPath id="clip1">
  <rect x="0" y="0" width="242" height="242"/>
</clipPath>
<g id="surface5" clip-path="url(#clip1)">
<path style=" stroke:none;fill-rule:nonzero;fill:rgb(17.647059%,45.490196%,100%);fill-opacity:1;" d="M 242 237 C 242 239.761719 239.761719 242.003906 237 241.949219 C 206.921875 241.328125 177.210938 235.101562 149.390625 223.578125 C 120.03125 211.417969 93.351562 193.59375 70.878906 171.121094 C 48.410156 148.648438 30.582031 121.96875 18.421875 92.609375 C 6.898438 64.789062 0.671875 35.078125 0.0507812 5 C -0.00390625 2.238281 2.238281 0 5 0 L 237 0 C 239.761719 0 242 2.238281 242 5 Z M 242 237 "/>
</g>
</defs>
<g id="surface1">
<use xlink:href="#surface5" mask="url(#mask0)"/>
</g>
</svg>
