<svg width="637" height="629" viewBox="0 0 637 629" fill="none" xmlns="http://www.w3.org/2000/svg">
<path d="M635.75 314.5C635.75 487.488 493.727 627.75 318.5 627.75C143.273 627.75 1.25 487.488 1.25 314.5C1.25 141.512 143.273 1.25 318.5 1.25C493.727 1.25 635.75 141.512 635.75 314.5Z" fill="white" stroke="#EFECEB" stroke-width="2.5"/>
<path d="M584.946 315.128C584.946 460.96 465.219 579.202 317.5 579.202C169.781 579.202 50.0538 460.96 50.0538 315.128C50.0538 169.296 169.781 51.0538 317.5 51.0538C465.219 51.0538 584.946 169.296 584.946 315.128Z" fill="white" stroke="#EFECEB" stroke-width="2.10754"/>
<path d="M530.137 315.237C530.137 434.727 432.036 531.611 311 531.611C189.964 531.611 91.8634 434.727 91.8634 315.237C91.8634 195.747 189.964 98.8634 311 98.8634C432.036 98.8634 530.137 195.747 530.137 315.237Z" fill="white" stroke="#EFECEB" stroke-width="1.72684"/>
</svg>
